<svg xmlns="http://www.w3.org/2000/svg" width="960" height="540" viewBox="0 0 960 540">
  <rect width="960" height="540" fill="#eef1f5"/>
  <rect x="120" y="70" width="720" height="400" rx="16" fill="#ffffff" stroke="#d6dbe3"/>

  <text x="480" y="130" text-anchor="middle" font-family="Arial, sans-serif" font-size="42" font-weight="700" fill="#111827">
    Bar Chart
  </text>

  <line x1="210" y1="390" x2="760" y2="390" stroke="#d1d5db" stroke-width="1"/>
  <line x1="210" y1="336" x2="760" y2="336" stroke="#d1d5db" stroke-width="1"/>
  <line x1="210" y1="282" x2="760" y2="282" stroke="#d1d5db" stroke-width="1"/>
  <line x1="210" y1="228" x2="760" y2="228" stroke="#d1d5db" stroke-width="1"/>
  <line x1="210" y1="174" x2="760" y2="174" stroke="#d1d5db" stroke-width="1"/>

  <line x1="210" y1="150" x2="210" y2="390" stroke="#9ca3af" stroke-width="1"/>
  <line x1="210" y1="390" x2="760" y2="390" stroke="#9ca3af" stroke-width="1"/>

  <text x="195" y="394" text-anchor="end" font-family="Arial, sans-serif" font-size="14" fill="#6b7280">0</text>
  <text x="195" y="340" text-anchor="end" font-family="Arial, sans-serif" font-size="14" fill="#6b7280">20</text>
  <text x="195" y="286" text-anchor="end" font-family="Arial, sans-serif" font-size="14" fill="#6b7280">40</text>
  <text x="195" y="232" text-anchor="end" font-family="Arial, sans-serif" font-size="14" fill="#6b7280">60</text>
  <text x="195" y="178" text-anchor="end" font-family="Arial, sans-serif" font-size="14" fill="#6b7280">80</text>
  <text x="195" y="154" text-anchor="end" font-family="Arial, sans-serif" font-size="14" fill="#6b7280">100</text>

  <rect x="320" y="150" width="90" height="240" rx="4" fill="#4d9de0"/>
  <rect x="560" y="346" width="90" height="44" rx="4" fill="#4d9de0"/>

  <text x="365" y="425" text-anchor="middle" font-family="Arial, sans-serif" font-size="20" fill="#6b7280">dep1</text>
  <text x="605" y="425" text-anchor="middle" font-family="Arial, sans-serif" font-size="20" fill="#6b7280">dept2</text>
</svg>
